<?xml version="1.0" encoding="UTF-8" standalone="no"?>
<!DOCTYPE svg PUBLIC "-//W3C//DTD SVG 1.1//EN" "http://www.w3.org/Graphics/SVG/1.1/DTD/svg11.dtd">
<svg width="100%" height="100%" viewBox="0 0 360 180" version="1.1" xmlns="http://www.w3.org/2000/svg" xmlns:xlink="http://www.w3.org/1999/xlink" xml:space="preserve" xmlns:serif="http://www.serif.com/" style="fill-rule:evenodd;clip-rule:evenodd;stroke-linejoin:round;stroke-miterlimit:2;">
    <rect x="0" y="0" width="360" height="180" style="fill:rgb(126,51,111);"/>
    <g id="Layer_1-2">
        <path d="M58.3,83.7L60.1,96.5C62.2,96.7 64.1,97.8 65.5,99.4L82.8,98C82.8,97 83.2,96 83.6,95.1L61.5,81.8C60.6,82.7 59.5,83.3 58.3,83.7ZM99.8,61.7L96.4,54L96.1,54C94.2,54.4 92.3,54.2 90.6,53.4L83.7,65.9C85.9,66.8 87.6,68.7 88.4,71.1L96.7,69.5C96.2,66.5 97.5,63.5 99.8,61.6L99.8,61.7ZM99,52.8L102.3,60.3C107,58.7 112.2,61.6 113.3,66.5C114.3,71.1 111.4,75.6 106.9,76.6C103.2,77.4 99.4,75.7 97.7,72.5L88.8,74.2C88.8,77.9 86,81.3 82.2,82.1C77.8,83.1 73.4,80.4 72.2,76.1L64.1,77.1C64.1,78 63.7,78.8 63.3,79.6L85.3,92.9C86.4,91.8 87.8,91 89.4,90.7C94,89.7 98.5,92.6 99.5,97.1C100.5,101.6 97.6,106.2 93.1,107.2C88.6,108.2 84.2,105.5 83.1,101L67.2,102.3C68.8,107 65.9,112.2 61,113.3C56.4,114.3 51.9,111.4 50.9,106.9C50.5,104.9 50.9,102.9 51.6,101.2L35.2,91.3C34.5,91.7 33.7,92 32.9,92.2C28.3,93.2 23.8,90.3 22.8,85.8C21.7,81 25.1,76.2 29.9,75.6L27.7,61.9C24,61.7 20.7,59.1 19.9,55.3C18.9,50.7 21.8,46.2 26.3,45.2C28.7,44.7 31.2,45.2 33,46.6L40.2,37.7C39.4,36.7 38.9,35.6 38.6,34.3C37.6,29.7 40.5,25.2 45,24.2C49.4,23.2 53.8,25.9 55,30.2L64.7,29C64.7,25.2 67.4,21.8 71.3,20.9C75.9,19.9 80.4,22.8 81.4,27.3C81.9,29.5 81.4,31.6 80.4,33.4L88.5,39.7C89.5,38.8 90.8,38.1 92.3,37.7C96.9,36.7 101.4,39.6 102.4,44.1C103.3,47.4 101.8,50.9 99,52.8ZM80.8,65.4C79.2,65.4 77.5,65.7 76.1,66.6L66.5,59C67.4,57.7 68,56.2 68.1,54.6L87,50.2C87.3,50.8 87.7,51.3 88.2,51.7L80.8,65.4ZM64,74.1L71.9,73.2C71.9,71.5 72.7,69.8 73.8,68.5L64.3,61C62.8,62 61,62.5 59.2,62.4L58.1,67.6C61.2,68.4 63.5,71 64,74.1ZM48.1,79.3L39.3,82.1C39.8,84.7 39.1,87.3 37.5,89.2L53.3,98.7C54.3,97.7 55.6,97 57.1,96.7L55.3,84.1C52.3,84 49.5,82.1 48.1,79.3ZM38.3,79.4L47.3,76.6C47.1,74.6 47.6,72.7 48.7,71.1L33.2,60C32.4,60.6 31.6,61 30.6,61.3L32.8,75.5C35.1,76 37.1,77.4 38.3,79.4ZM78.6,35.4C76.3,37.3 73.1,37.9 70.3,36.9L65.1,47.5C66.4,48.6 67.3,50 67.8,51.7L85.9,47.5C85.5,45.5 85.9,43.5 86.7,41.8L78.6,35.4ZM55.2,67.2L56.4,61.7C53.6,60.5 51.6,57.9 51.2,54.9L36.4,54.9C36.2,56 35.8,57 35.2,57.9L50.7,68.9C52,67.9 53.6,67.3 55.2,67.2ZM67.8,35.4C66.6,34.4 65.7,33.1 65.2,31.6L55.4,32.8C55.2,35.3 54,37.5 52,39L56.7,46C58.6,45.3 60.7,45.3 62.7,46L67.8,35.4ZM35.1,48.4C35.9,49.5 36.4,50.8 36.5,52.1L51.4,52.1C51.8,50.2 52.8,48.7 54.1,47.5L49.3,40.3C47,41 44.5,40.6 42.4,39.4L35.1,48.4Z" style="fill:rgb(130,205,226);"/>
    </g>
    <g>
        <g transform="matrix(1,0,0,1,152.2,49)">
            <g transform="matrix(36,0,0,36,0,0)">
                <path d="M0.199,-0.404L0.132,-0.337L0.132,-0.492C0.132,-0.52 0.155,-0.542 0.182,-0.542L0.43,-0.542L0.47,-0.675L0.18,-0.675C0.081,-0.675 0,-0.594 0,-0.495L0,-0.18C0,-0.081 0.081,-0 0.18,-0L0.47,-0L0.47,-0.132L0.182,-0.132C0.155,-0.132 0.132,-0.155 0.132,-0.182L0.132,-0.271L0.47,-0.271L0.47,-0.404L0.199,-0.404Z" style="fill:white;fill-rule:nonzero;"/>
            </g>
            <g transform="matrix(36,0,0,36,20.34,0)">
                <path d="M0.5,-0.45C0.5,-0.524 0.441,-0.583 0.367,-0.583L0.199,-0.583L0.132,-0.517L0.132,-0.583L0,-0.583L0,-0L0.132,-0L0.132,-0.45L0.341,-0.45C0.356,-0.45 0.367,-0.439 0.367,-0.424L0.367,-0L0.5,-0L0.5,-0.45Z" style="fill:white;fill-rule:nonzero;"/>
            </g>
            <g transform="matrix(36,0,0,36,41.76,0)">
                <path d="M0.5,-0.45C0.5,-0.524 0.441,-0.583 0.367,-0.583L0.199,-0.583L0.132,-0.517L0.132,-0.75L0,-0.75L0,-0L0.132,-0L0.132,-0.45L0.341,-0.45C0.356,-0.45 0.367,-0.439 0.367,-0.424L0.367,-0L0.5,-0L0.5,-0.45Z" style="fill:white;fill-rule:nonzero;"/>
            </g>
            <g transform="matrix(36,0,0,36,63.18,0)">
                <path d="M0.53,-0.45C0.53,-0.524 0.471,-0.583 0.397,-0.583L0.093,-0.583L0.053,-0.45L0.371,-0.45C0.386,-0.45 0.397,-0.439 0.397,-0.424L0.397,-0.132L0.159,-0.132C0.144,-0.132 0.132,-0.144 0.132,-0.159L0.132,-0.199C0.132,-0.213 0.144,-0.225 0.159,-0.225L0.348,-0.225L0.309,-0.358L0.132,-0.358C0.059,-0.358 0,-0.298 0,-0.225L0,-0.132C0,-0.059 0.059,-0 0.132,-0L0.331,-0L0.397,-0.066L0.397,-0L0.53,-0L0.53,-0.45Z" style="fill:white;fill-rule:nonzero;"/>
            </g>
            <g transform="matrix(36,0,0,36,85.68,0)">
                <path d="M0.5,-0.45C0.5,-0.524 0.441,-0.583 0.367,-0.583L0.199,-0.583L0.132,-0.517L0.132,-0.583L0,-0.583L0,-0L0.132,-0L0.132,-0.45L0.341,-0.45C0.356,-0.45 0.367,-0.439 0.367,-0.424L0.367,-0L0.5,-0L0.5,-0.45Z" style="fill:white;fill-rule:nonzero;"/>
            </g>
            <g transform="matrix(36,0,0,36,107.1,0)">
                <path d="M0.44,-0.132L0.159,-0.132C0.144,-0.132 0.132,-0.144 0.132,-0.159L0.132,-0.424C0.132,-0.439 0.144,-0.45 0.159,-0.45L0.4,-0.45L0.44,-0.583L0.132,-0.583C0.059,-0.583 0,-0.524 0,-0.45L0,-0.132C0,-0.059 0.059,-0 0.132,-0L0.44,-0L0.44,-0.132Z" style="fill:white;fill-rule:nonzero;"/>
            </g>
            <g transform="matrix(36,0,0,36,126.18,0)">
                <path d="M0.397,-0.358L0.239,-0.358L0.199,-0.225L0.53,-0.225L0.53,-0.45C0.53,-0.524 0.471,-0.583 0.397,-0.583L0.132,-0.583C0.059,-0.583 0,-0.524 0,-0.45L0,-0.132C0,-0.059 0.059,-0 0.132,-0L0.464,-0L0.503,-0.132L0.159,-0.132C0.144,-0.132 0.132,-0.144 0.132,-0.159L0.132,-0.424C0.132,-0.439 0.144,-0.45 0.159,-0.45L0.371,-0.45C0.386,-0.45 0.397,-0.439 0.397,-0.424L0.397,-0.358Z" style="fill:white;fill-rule:nonzero;"/>
            </g>
            <g transform="matrix(36,0,0,36,148.68,0)">
                <path d="M0.55,-0.383L0.55,-0.38L0.55,-0.383ZM0.55,-0.498L0.55,-0.495L0.55,-0.498ZM0.571,-0L0.444,-0.219C0.506,-0.247 0.549,-0.309 0.55,-0.38L0.55,-0.498C0.548,-0.596 0.468,-0.675 0.37,-0.675L0,-0.675L0,-0L0.132,-0L0.132,-0.542L0.367,-0.542C0.395,-0.542 0.417,-0.52 0.417,-0.492L0.417,-0.386C0.417,-0.358 0.395,-0.336 0.367,-0.336L0.224,-0.336L0.184,-0.203L0.301,-0.203L0.418,-0L0.571,-0Z" style="fill:white;fill-rule:nonzero;"/>
            </g>
        </g>
        <g transform="matrix(1,0,0,1,134.2,80)">
            <g transform="matrix(36,0,0,36,0,0)">
                <path d="M0.55,-0.224C0.55,-0.323 0.469,-0.404 0.37,-0.404L0.182,-0.404C0.155,-0.404 0.132,-0.426 0.132,-0.454L0.132,-0.492C0.132,-0.52 0.155,-0.542 0.182,-0.542L0.46,-0.542L0.5,-0.675L0.18,-0.675C0.081,-0.675 0,-0.594 0,-0.495L0,-0.451C0,-0.352 0.081,-0.271 0.18,-0.271L0.367,-0.271C0.395,-0.271 0.417,-0.249 0.417,-0.221L0.417,-0.182C0.417,-0.155 0.395,-0.132 0.367,-0.132L0.04,-0.132L0,-0L0.37,-0C0.469,-0 0.55,-0.081 0.55,-0.18L0.55,-0.224Z" style="fill:white;fill-rule:nonzero;"/>
            </g>
            <g transform="matrix(36,0,0,36,22.32,0)">
                <path d="M0.51,-0.583L0.372,-0.583L0.235,-0.127L0.098,-0.583L-0.04,-0.583L0.135,-0L0.197,-0L0.147,0.167L0.285,0.167L0.51,-0.583Z" style="fill:white;fill-rule:nonzero;"/>
            </g>
            <g transform="matrix(36,0,0,36,42.48,0)">
                <path d="M0.867,-0.45C0.867,-0.524 0.808,-0.583 0.735,-0.583L0.566,-0.583L0.488,-0.505C0.467,-0.551 0.421,-0.583 0.367,-0.583L0.199,-0.583L0.132,-0.517L0.132,-0.583L0,-0.583L0,-0L0.132,-0L0.132,-0.45L0.341,-0.45C0.356,-0.45 0.367,-0.439 0.367,-0.424L0.367,-0L0.5,-0L0.5,-0.45L0.708,-0.45C0.723,-0.45 0.735,-0.439 0.735,-0.424L0.735,-0L0.867,-0L0.867,-0.45Z" style="fill:white;fill-rule:nonzero;"/>
            </g>
            <g transform="matrix(36,0,0,36,77.112,0)">
                <path d="M0.53,-0.45C0.53,-0.524 0.471,-0.583 0.397,-0.583L0.199,-0.583L0.132,-0.517L0.132,-0.583L0,-0.583L0,0.167L0.132,0.167L0.132,-0.45L0.371,-0.45C0.386,-0.45 0.397,-0.439 0.397,-0.424L0.397,-0.159C0.397,-0.144 0.386,-0.132 0.371,-0.132L0.173,-0.132L0.213,-0L0.397,-0C0.471,-0 0.53,-0.059 0.53,-0.132L0.53,-0.45Z" style="fill:white;fill-rule:nonzero;"/>
            </g>
            <g transform="matrix(36,0,0,36,99.612,0)">
                <path d="M0.397,-0.583L0.132,-0.583C0.059,-0.583 0,-0.524 0,-0.45L0,-0.132C0,-0.059 0.059,-0 0.132,-0L0.397,-0C0.471,-0 0.53,-0.059 0.53,-0.132L0.53,-0.45C0.53,-0.524 0.471,-0.583 0.397,-0.583ZM0.397,-0.159C0.397,-0.144 0.386,-0.132 0.371,-0.132L0.159,-0.132C0.144,-0.132 0.132,-0.144 0.132,-0.159L0.132,-0.424C0.132,-0.439 0.144,-0.45 0.159,-0.45L0.371,-0.45C0.386,-0.45 0.397,-0.439 0.397,-0.424L0.397,-0.159Z" style="fill:white;fill-rule:nonzero;"/>
            </g>
            <g transform="matrix(36,0,0,36,122.112,0)">
                <path d="M0.53,-0.225C0.53,-0.298 0.471,-0.358 0.397,-0.358L0.159,-0.358C0.144,-0.358 0.132,-0.37 0.132,-0.384L0.132,-0.424C0.132,-0.439 0.144,-0.45 0.159,-0.45L0.45,-0.45L0.49,-0.583L0.132,-0.583C0.059,-0.583 0,-0.524 0,-0.45L0,-0.358C0,-0.285 0.059,-0.225 0.132,-0.225L0.371,-0.225C0.386,-0.225 0.397,-0.213 0.397,-0.199L0.397,-0.159C0.397,-0.144 0.386,-0.132 0.371,-0.132L0.04,-0.132L0,-0L0.397,-0C0.471,-0 0.53,-0.059 0.53,-0.132L0.53,-0.225Z" style="fill:white;fill-rule:nonzero;"/>
            </g>
            <g transform="matrix(36,0,0,36,144.432,0)">
                <path d="M0,-0L0,-0.583L0.132,-0.583L0.132,-0L0,-0ZM0,-0.75L0,-0.626L0.132,-0.666L0.132,-0.75L0,-0.75Z" style="fill:white;fill-rule:nonzero;"/>
            </g>
            <g transform="matrix(36,0,0,36,152.604,0)">
                <path d="M0.367,-0.583L0.367,-0.159C0.367,-0.144 0.356,-0.132 0.341,-0.132L0.159,-0.132C0.144,-0.132 0.132,-0.144 0.132,-0.159L0.132,-0.583L0,-0.583L0,-0.132C0,-0.059 0.059,-0 0.132,-0L0.367,-0C0.441,-0 0.5,-0.059 0.5,-0.132L0.5,-0.583L0.367,-0.583Z" style="fill:white;fill-rule:nonzero;"/>
            </g>
            <g transform="matrix(36,0,0,36,174.024,0)">
                <path d="M0.867,-0.45C0.867,-0.524 0.808,-0.583 0.735,-0.583L0.566,-0.583L0.488,-0.505C0.467,-0.551 0.421,-0.583 0.367,-0.583L0.199,-0.583L0.132,-0.517L0.132,-0.583L0,-0.583L0,-0L0.132,-0L0.132,-0.45L0.341,-0.45C0.356,-0.45 0.367,-0.439 0.367,-0.424L0.367,-0L0.5,-0L0.5,-0.45L0.708,-0.45C0.723,-0.45 0.735,-0.439 0.735,-0.424L0.735,-0L0.867,-0L0.867,-0.45Z" style="fill:white;fill-rule:nonzero;"/>
            </g>
        </g>
        <g transform="matrix(1,0,0,1,192.988,118.3)">
            <g transform="matrix(36,0,0,36,0,0)">
                <path d="M0.132,-0.221C0.132,-0.249 0.155,-0.271 0.182,-0.271L0.37,-0.271C0.469,-0.271 0.55,-0.352 0.55,-0.451L0.55,-0.495C0.55,-0.594 0.469,-0.675 0.37,-0.675L0.05,-0.675L0.09,-0.542L0.367,-0.542C0.395,-0.542 0.417,-0.52 0.417,-0.492L0.417,-0.454C0.417,-0.426 0.395,-0.404 0.367,-0.404L0.18,-0.404C0.081,-0.404 0,-0.323 0,-0.224L0,-0L0.55,-0L0.55,-0.132L0.132,-0.132L0.132,-0.221Z" style="fill:white;fill-rule:nonzero;"/>
            </g>
            <g transform="matrix(36,0,0,36,23.22,0)">
                <path d="M0.32,-0.675L0.18,-0.675C0.081,-0.675 0,-0.594 0,-0.495L0,-0.18C0,-0.081 0.081,-0 0.18,-0L0.32,-0C0.419,-0 0.5,-0.081 0.5,-0.18L0.5,-0.495C0.5,-0.594 0.419,-0.675 0.32,-0.675ZM0.367,-0.182C0.367,-0.155 0.345,-0.132 0.317,-0.132L0.182,-0.132C0.155,-0.132 0.132,-0.155 0.132,-0.182L0.132,-0.492C0.132,-0.52 0.155,-0.542 0.182,-0.542L0.317,-0.542C0.345,-0.542 0.367,-0.52 0.367,-0.492L0.367,-0.182Z" style="fill:white;fill-rule:nonzero;"/>
            </g>
            <g transform="matrix(36,0,0,36,44.64,0)">
                <path d="M0.132,-0.221C0.132,-0.249 0.155,-0.271 0.182,-0.271L0.37,-0.271C0.469,-0.271 0.55,-0.352 0.55,-0.451L0.55,-0.495C0.55,-0.594 0.469,-0.675 0.37,-0.675L0.05,-0.675L0.09,-0.542L0.367,-0.542C0.395,-0.542 0.417,-0.52 0.417,-0.492L0.417,-0.454C0.417,-0.426 0.395,-0.404 0.367,-0.404L0.18,-0.404C0.081,-0.404 0,-0.323 0,-0.224L0,-0L0.55,-0L0.55,-0.132L0.132,-0.132L0.132,-0.221Z" style="fill:white;fill-rule:nonzero;"/>
            </g>
            <g transform="matrix(36,0,0,36,67.86,0)">
                <path d="M0.55,-0.224C0.55,-0.323 0.469,-0.404 0.37,-0.404L0.182,-0.404C0.155,-0.404 0.132,-0.426 0.132,-0.454L0.132,-0.542L0.437,-0.542L0.477,-0.675L0,-0.675L0,-0.451C0,-0.352 0.081,-0.271 0.18,-0.271L0.367,-0.271C0.395,-0.271 0.417,-0.249 0.417,-0.221L0.417,-0.182C0.417,-0.155 0.395,-0.132 0.367,-0.132L0.04,-0.132L0,-0L0.37,-0C0.469,-0 0.55,-0.081 0.55,-0.18L0.55,-0.224Z" style="fill:white;fill-rule:nonzero;"/>
            </g>
        </g>
    </g>
    <g transform="matrix(1,0,0,1,8.1,162.4)">
        <g transform="matrix(30,0,0,30,38.9429,0)">
            <path d="M0.048,-0.027L0.048,-0.183C0.076,-0.159 0.107,-0.142 0.14,-0.13C0.173,-0.118 0.207,-0.112 0.241,-0.112C0.261,-0.112 0.278,-0.114 0.293,-0.117C0.308,-0.121 0.32,-0.126 0.33,-0.132C0.34,-0.138 0.347,-0.146 0.352,-0.155C0.357,-0.163 0.359,-0.173 0.359,-0.183C0.359,-0.196 0.355,-0.208 0.348,-0.219C0.34,-0.23 0.329,-0.24 0.316,-0.249C0.302,-0.258 0.286,-0.267 0.268,-0.275C0.249,-0.284 0.229,-0.292 0.208,-0.301C0.153,-0.324 0.112,-0.352 0.085,-0.385C0.058,-0.418 0.045,-0.457 0.045,-0.504C0.045,-0.54 0.052,-0.572 0.067,-0.598C0.082,-0.624 0.101,-0.646 0.127,-0.663C0.152,-0.68 0.181,-0.692 0.214,-0.7C0.248,-0.708 0.283,-0.712 0.32,-0.712C0.356,-0.712 0.389,-0.71 0.417,-0.705C0.445,-0.701 0.471,-0.694 0.495,-0.685L0.495,-0.539C0.483,-0.547 0.47,-0.554 0.456,-0.561C0.442,-0.567 0.428,-0.572 0.414,-0.576C0.399,-0.58 0.384,-0.583 0.37,-0.585C0.355,-0.587 0.342,-0.588 0.329,-0.588C0.311,-0.588 0.294,-0.586 0.28,-0.583C0.265,-0.579 0.253,-0.575 0.243,-0.568C0.233,-0.562 0.225,-0.555 0.219,-0.546C0.214,-0.538 0.211,-0.528 0.211,-0.517C0.211,-0.505 0.214,-0.495 0.22,-0.486C0.226,-0.476 0.235,-0.468 0.247,-0.459C0.258,-0.451 0.272,-0.443 0.288,-0.435C0.304,-0.427 0.323,-0.419 0.343,-0.41C0.371,-0.398 0.396,-0.386 0.419,-0.373C0.441,-0.36 0.46,-0.345 0.476,-0.328C0.492,-0.312 0.504,-0.293 0.513,-0.271C0.521,-0.25 0.525,-0.225 0.525,-0.197C0.525,-0.158 0.518,-0.125 0.503,-0.098C0.488,-0.072 0.468,-0.05 0.443,-0.034C0.417,-0.017 0.388,-0.006 0.354,0.001C0.321,0.009 0.285,0.012 0.248,0.012C0.209,0.012 0.173,0.009 0.138,0.002C0.103,-0.004 0.073,-0.014 0.048,-0.027Z" style="fill:white;fill-rule:nonzero;"/>
        </g>
        <g transform="matrix(30,0,0,30,55.4663,0)">
            <path d="M0.789,-0.5L0.645,-0L0.483,-0L0.409,-0.293C0.404,-0.313 0.402,-0.334 0.401,-0.357L0.398,-0.357C0.396,-0.332 0.392,-0.311 0.388,-0.295L0.309,-0L0.149,-0L0.008,-0.5L0.165,-0.5L0.234,-0.174C0.237,-0.159 0.24,-0.14 0.241,-0.118L0.244,-0.118C0.246,-0.141 0.249,-0.16 0.253,-0.176L0.339,-0.5L0.486,-0.5L0.563,-0.174C0.565,-0.166 0.567,-0.147 0.57,-0.117L0.573,-0.117C0.575,-0.136 0.577,-0.155 0.581,-0.174L0.646,-0.5L0.789,-0.5Z" style="fill:white;fill-rule:nonzero;"/>
        </g>
        <g transform="matrix(30,0,0,30,79.3872,0)">
            <path d="M0.143,-0.579C0.117,-0.579 0.096,-0.587 0.079,-0.602C0.063,-0.618 0.054,-0.637 0.054,-0.659C0.054,-0.682 0.063,-0.701 0.079,-0.716C0.096,-0.73 0.117,-0.738 0.143,-0.738C0.169,-0.738 0.191,-0.73 0.207,-0.716C0.224,-0.701 0.232,-0.682 0.232,-0.659C0.232,-0.636 0.224,-0.617 0.207,-0.602C0.191,-0.587 0.169,-0.579 0.143,-0.579ZM0.219,-0L0.065,-0L0.065,-0.5L0.219,-0.5L0.219,-0Z" style="fill:white;fill-rule:nonzero;"/>
        </g>
        <g transform="matrix(30,0,0,30,87.9126,0)">
            <path d="M0.032,-0.013L0.032,-0.138C0.058,-0.123 0.083,-0.111 0.108,-0.104C0.133,-0.097 0.157,-0.093 0.18,-0.093C0.207,-0.093 0.229,-0.097 0.244,-0.104C0.26,-0.111 0.268,-0.123 0.268,-0.138C0.268,-0.148 0.264,-0.156 0.257,-0.163C0.25,-0.169 0.241,-0.175 0.23,-0.18C0.219,-0.185 0.206,-0.189 0.193,-0.193C0.18,-0.197 0.167,-0.201 0.154,-0.206C0.134,-0.214 0.117,-0.222 0.102,-0.23C0.087,-0.239 0.074,-0.249 0.064,-0.26C0.053,-0.272 0.046,-0.285 0.04,-0.3C0.035,-0.315 0.032,-0.333 0.032,-0.353C0.032,-0.381 0.038,-0.405 0.051,-0.425C0.063,-0.445 0.079,-0.462 0.099,-0.475C0.12,-0.488 0.143,-0.497 0.169,-0.503C0.195,-0.509 0.223,-0.512 0.251,-0.512C0.273,-0.512 0.296,-0.51 0.318,-0.507C0.341,-0.504 0.364,-0.499 0.386,-0.492L0.386,-0.373C0.366,-0.384 0.345,-0.393 0.323,-0.399C0.301,-0.404 0.279,-0.407 0.257,-0.407C0.247,-0.407 0.238,-0.406 0.229,-0.405C0.22,-0.403 0.212,-0.4 0.205,-0.397C0.198,-0.393 0.193,-0.389 0.189,-0.384C0.185,-0.378 0.183,-0.372 0.183,-0.365C0.183,-0.356 0.186,-0.348 0.192,-0.342C0.198,-0.335 0.205,-0.33 0.215,-0.325C0.224,-0.32 0.235,-0.316 0.246,-0.312C0.258,-0.309 0.269,-0.305 0.281,-0.301C0.301,-0.294 0.32,-0.286 0.336,-0.277C0.353,-0.269 0.367,-0.259 0.379,-0.248C0.391,-0.236 0.4,-0.223 0.406,-0.208C0.413,-0.192 0.416,-0.174 0.416,-0.153C0.416,-0.123 0.41,-0.098 0.397,-0.077C0.384,-0.056 0.367,-0.039 0.345,-0.026C0.324,-0.012 0.3,-0.003 0.272,0.003C0.244,0.009 0.215,0.012 0.185,0.012C0.13,0.012 0.079,0.004 0.032,-0.013Z" style="fill:white;fill-rule:nonzero;"/>
        </g>
        <g transform="matrix(30,0,0,30,101.111,0)">
            <path d="M0.032,-0.013L0.032,-0.138C0.058,-0.123 0.083,-0.111 0.108,-0.104C0.133,-0.097 0.157,-0.093 0.18,-0.093C0.207,-0.093 0.229,-0.097 0.244,-0.104C0.26,-0.111 0.268,-0.123 0.268,-0.138C0.268,-0.148 0.264,-0.156 0.257,-0.163C0.25,-0.169 0.241,-0.175 0.23,-0.18C0.219,-0.185 0.206,-0.189 0.193,-0.193C0.18,-0.197 0.167,-0.201 0.154,-0.206C0.134,-0.214 0.117,-0.222 0.102,-0.23C0.087,-0.239 0.074,-0.249 0.064,-0.26C0.053,-0.272 0.046,-0.285 0.04,-0.3C0.035,-0.315 0.032,-0.333 0.032,-0.353C0.032,-0.381 0.038,-0.405 0.051,-0.425C0.063,-0.445 0.079,-0.462 0.099,-0.475C0.12,-0.488 0.143,-0.497 0.169,-0.503C0.195,-0.509 0.223,-0.512 0.251,-0.512C0.273,-0.512 0.296,-0.51 0.318,-0.507C0.341,-0.504 0.364,-0.499 0.386,-0.492L0.386,-0.373C0.366,-0.384 0.345,-0.393 0.323,-0.399C0.301,-0.404 0.279,-0.407 0.257,-0.407C0.247,-0.407 0.238,-0.406 0.229,-0.405C0.22,-0.403 0.212,-0.4 0.205,-0.397C0.198,-0.393 0.193,-0.389 0.189,-0.384C0.185,-0.378 0.183,-0.372 0.183,-0.365C0.183,-0.356 0.186,-0.348 0.192,-0.342C0.198,-0.335 0.205,-0.33 0.215,-0.325C0.224,-0.32 0.235,-0.316 0.246,-0.312C0.258,-0.309 0.269,-0.305 0.281,-0.301C0.301,-0.294 0.32,-0.286 0.336,-0.277C0.353,-0.269 0.367,-0.259 0.379,-0.248C0.391,-0.236 0.4,-0.223 0.406,-0.208C0.413,-0.192 0.416,-0.174 0.416,-0.153C0.416,-0.123 0.41,-0.098 0.397,-0.077C0.384,-0.056 0.367,-0.039 0.345,-0.026C0.324,-0.012 0.3,-0.003 0.272,0.003C0.244,0.009 0.215,0.012 0.185,0.012C0.13,0.012 0.079,0.004 0.032,-0.013Z" style="fill:white;fill-rule:nonzero;"/>
        </g>
        <g transform="matrix(30,0,0,30,122.585,0)">
            <path d="M0.667,-0L0.486,-0L0.377,-0.18C0.369,-0.194 0.361,-0.206 0.354,-0.217C0.347,-0.228 0.339,-0.237 0.331,-0.244C0.324,-0.252 0.316,-0.258 0.307,-0.262C0.299,-0.266 0.29,-0.268 0.28,-0.268L0.238,-0.268L0.238,-0L0.08,-0L0.08,-0.7L0.33,-0.7C0.5,-0.7 0.585,-0.637 0.585,-0.51C0.585,-0.485 0.581,-0.463 0.574,-0.442C0.566,-0.421 0.556,-0.403 0.542,-0.386C0.528,-0.37 0.512,-0.355 0.492,-0.343C0.473,-0.331 0.451,-0.322 0.428,-0.315L0.428,-0.313C0.438,-0.31 0.448,-0.304 0.458,-0.297C0.468,-0.29 0.477,-0.281 0.486,-0.271C0.495,-0.262 0.504,-0.251 0.512,-0.24C0.521,-0.229 0.528,-0.218 0.535,-0.207L0.667,-0ZM0.238,-0.582L0.238,-0.387L0.306,-0.387C0.34,-0.387 0.367,-0.397 0.388,-0.417C0.409,-0.436 0.419,-0.461 0.419,-0.49C0.419,-0.551 0.382,-0.582 0.309,-0.582L0.238,-0.582Z" style="fill:white;fill-rule:nonzero;"/>
        </g>
        <g transform="matrix(30,0,0,30,142.17,0)">
            <path d="M0.048,-0.027L0.048,-0.183C0.076,-0.159 0.107,-0.142 0.14,-0.13C0.173,-0.118 0.207,-0.112 0.241,-0.112C0.261,-0.112 0.278,-0.114 0.293,-0.117C0.308,-0.121 0.32,-0.126 0.33,-0.132C0.34,-0.138 0.347,-0.146 0.352,-0.155C0.357,-0.163 0.359,-0.173 0.359,-0.183C0.359,-0.196 0.355,-0.208 0.348,-0.219C0.34,-0.23 0.329,-0.24 0.316,-0.249C0.302,-0.258 0.286,-0.267 0.268,-0.275C0.249,-0.284 0.229,-0.292 0.208,-0.301C0.153,-0.324 0.112,-0.352 0.085,-0.385C0.058,-0.418 0.045,-0.457 0.045,-0.504C0.045,-0.54 0.052,-0.572 0.067,-0.598C0.082,-0.624 0.101,-0.646 0.127,-0.663C0.152,-0.68 0.181,-0.692 0.214,-0.7C0.248,-0.708 0.283,-0.712 0.32,-0.712C0.356,-0.712 0.389,-0.71 0.417,-0.705C0.445,-0.701 0.471,-0.694 0.495,-0.685L0.495,-0.539C0.483,-0.547 0.47,-0.554 0.456,-0.561C0.442,-0.567 0.428,-0.572 0.414,-0.576C0.399,-0.58 0.384,-0.583 0.37,-0.585C0.355,-0.587 0.342,-0.588 0.329,-0.588C0.311,-0.588 0.294,-0.586 0.28,-0.583C0.265,-0.579 0.253,-0.575 0.243,-0.568C0.233,-0.562 0.225,-0.555 0.219,-0.546C0.214,-0.538 0.211,-0.528 0.211,-0.517C0.211,-0.505 0.214,-0.495 0.22,-0.486C0.226,-0.476 0.235,-0.468 0.247,-0.459C0.258,-0.451 0.272,-0.443 0.288,-0.435C0.304,-0.427 0.323,-0.419 0.343,-0.41C0.371,-0.398 0.396,-0.386 0.419,-0.373C0.441,-0.36 0.46,-0.345 0.476,-0.328C0.492,-0.312 0.504,-0.293 0.513,-0.271C0.521,-0.25 0.525,-0.225 0.525,-0.197C0.525,-0.158 0.518,-0.125 0.503,-0.098C0.488,-0.072 0.468,-0.05 0.443,-0.034C0.417,-0.017 0.388,-0.006 0.354,0.001C0.321,0.009 0.285,0.012 0.248,0.012C0.209,0.012 0.173,0.009 0.138,0.002C0.103,-0.004 0.073,-0.014 0.048,-0.027Z" style="fill:white;fill-rule:nonzero;"/>
        </g>
        <g transform="matrix(30,0,0,30,158.987,0)">
            <path d="M0.5,-0L0.08,-0L0.08,-0.7L0.484,-0.7L0.484,-0.572L0.238,-0.572L0.238,-0.416L0.467,-0.416L0.467,-0.288L0.238,-0.288L0.238,-0.128L0.5,-0.128L0.5,-0Z" style="fill:white;fill-rule:nonzero;"/>
        </g>
        <g transform="matrix(30,0,0,30,183.23,0)">
            <path d="M0.143,-0.579C0.117,-0.579 0.096,-0.587 0.079,-0.602C0.063,-0.618 0.054,-0.637 0.054,-0.659C0.054,-0.682 0.063,-0.701 0.079,-0.716C0.096,-0.73 0.117,-0.738 0.143,-0.738C0.169,-0.738 0.191,-0.73 0.207,-0.716C0.224,-0.701 0.232,-0.682 0.232,-0.659C0.232,-0.636 0.224,-0.617 0.207,-0.602C0.191,-0.587 0.169,-0.579 0.143,-0.579ZM0.219,-0L0.065,-0L0.065,-0.5L0.219,-0.5L0.219,-0Z" style="fill:white;fill-rule:nonzero;"/>
        </g>
        <g transform="matrix(30,0,0,30,191.755,0)">
            <path d="M0.548,-0L0.394,-0L0.394,-0.278C0.394,-0.355 0.366,-0.394 0.311,-0.394C0.284,-0.394 0.262,-0.384 0.245,-0.363C0.228,-0.343 0.219,-0.317 0.219,-0.285L0.219,-0L0.065,-0L0.065,-0.5L0.219,-0.5L0.219,-0.421L0.221,-0.421C0.258,-0.482 0.312,-0.512 0.382,-0.512C0.493,-0.512 0.548,-0.444 0.548,-0.306L0.548,-0Z" style="fill:white;fill-rule:nonzero;"/>
        </g>
        <g transform="matrix(30,0,0,30,218.181,0)">
            <path d="M0.481,-0L0.335,-0L0.335,-0.072L0.333,-0.072C0.299,-0.016 0.25,0.012 0.184,0.012C0.136,0.012 0.097,-0.002 0.07,-0.029C0.042,-0.057 0.028,-0.093 0.028,-0.139C0.028,-0.236 0.085,-0.292 0.2,-0.307L0.336,-0.325C0.336,-0.38 0.306,-0.407 0.247,-0.407C0.188,-0.407 0.131,-0.389 0.077,-0.354L0.077,-0.47C0.099,-0.481 0.128,-0.491 0.165,-0.5C0.203,-0.508 0.236,-0.512 0.267,-0.512C0.41,-0.512 0.481,-0.441 0.481,-0.299L0.481,-0ZM0.336,-0.203L0.336,-0.237L0.245,-0.225C0.195,-0.219 0.17,-0.196 0.17,-0.157C0.17,-0.14 0.176,-0.125 0.188,-0.114C0.2,-0.103 0.217,-0.097 0.238,-0.097C0.267,-0.097 0.29,-0.107 0.309,-0.127C0.327,-0.147 0.336,-0.173 0.336,-0.203Z" style="fill:white;fill-rule:nonzero;"/>
        </g>
        <g transform="matrix(30,0,0,30,234.324,0)">
            <path d="M0.444,-0.018C0.409,0.002 0.359,0.012 0.293,0.012C0.216,0.012 0.154,-0.011 0.106,-0.058C0.059,-0.104 0.035,-0.164 0.035,-0.238C0.035,-0.323 0.061,-0.39 0.112,-0.439C0.163,-0.488 0.231,-0.512 0.316,-0.512C0.375,-0.512 0.417,-0.504 0.444,-0.489L0.444,-0.358C0.412,-0.382 0.376,-0.394 0.336,-0.394C0.292,-0.394 0.257,-0.381 0.231,-0.355C0.205,-0.329 0.192,-0.294 0.192,-0.248C0.192,-0.204 0.204,-0.169 0.229,-0.144C0.254,-0.119 0.288,-0.106 0.331,-0.106C0.369,-0.106 0.407,-0.118 0.444,-0.142L0.444,-0.018Z" style="fill:white;fill-rule:nonzero;"/>
        </g>
        <g transform="matrix(30,0,0,30,248.723,0)">
            <path d="M0.367,-0.006C0.344,0.006 0.31,0.012 0.264,0.012C0.155,0.012 0.101,-0.044 0.101,-0.157L0.101,-0.386L0.02,-0.386L0.02,-0.5L0.101,-0.5L0.101,-0.608L0.255,-0.652L0.255,-0.5L0.367,-0.5L0.367,-0.386L0.255,-0.386L0.255,-0.184C0.255,-0.132 0.276,-0.106 0.317,-0.106C0.333,-0.106 0.35,-0.111 0.367,-0.12L0.367,-0.006Z" style="fill:white;fill-rule:nonzero;"/>
        </g>
        <g transform="matrix(30,0,0,30,260.398,0)">
            <path d="M0.143,-0.579C0.117,-0.579 0.096,-0.587 0.079,-0.602C0.063,-0.618 0.054,-0.637 0.054,-0.659C0.054,-0.682 0.063,-0.701 0.079,-0.716C0.096,-0.73 0.117,-0.738 0.143,-0.738C0.169,-0.738 0.191,-0.73 0.207,-0.716C0.224,-0.701 0.232,-0.682 0.232,-0.659C0.232,-0.636 0.224,-0.617 0.207,-0.602C0.191,-0.587 0.169,-0.579 0.143,-0.579ZM0.219,-0L0.065,-0L0.065,-0.5L0.219,-0.5L0.219,-0Z" style="fill:white;fill-rule:nonzero;"/>
        </g>
        <g transform="matrix(30,0,0,30,268.923,0)">
            <path d="M0.303,0.012C0.22,0.012 0.154,-0.011 0.107,-0.058C0.059,-0.105 0.035,-0.168 0.035,-0.248C0.035,-0.331 0.06,-0.395 0.109,-0.442C0.159,-0.489 0.226,-0.512 0.31,-0.512C0.393,-0.512 0.458,-0.489 0.505,-0.442C0.553,-0.395 0.576,-0.334 0.576,-0.257C0.576,-0.174 0.552,-0.108 0.503,-0.06C0.455,-0.012 0.388,0.012 0.303,0.012ZM0.307,-0.394C0.271,-0.394 0.242,-0.382 0.222,-0.356C0.202,-0.331 0.192,-0.296 0.192,-0.25C0.192,-0.154 0.231,-0.106 0.308,-0.106C0.382,-0.106 0.419,-0.155 0.419,-0.254C0.419,-0.347 0.382,-0.394 0.307,-0.394Z" style="fill:white;fill-rule:nonzero;"/>
        </g>
        <g transform="matrix(30,0,0,30,287.263,0)">
            <path d="M0.548,-0L0.394,-0L0.394,-0.278C0.394,-0.355 0.366,-0.394 0.311,-0.394C0.284,-0.394 0.262,-0.384 0.245,-0.363C0.228,-0.343 0.219,-0.317 0.219,-0.285L0.219,-0L0.065,-0L0.065,-0.5L0.219,-0.5L0.219,-0.421L0.221,-0.421C0.258,-0.482 0.312,-0.512 0.382,-0.512C0.493,-0.512 0.548,-0.444 0.548,-0.306L0.548,-0Z" style="fill:white;fill-rule:nonzero;"/>
        </g>
    </g>
</svg>
