<?xml version="1.0" encoding="UTF-8"?>
<svg id="Layer_2" data-name="Layer 2" xmlns="http://www.w3.org/2000/svg" version="1.1" viewBox="0 0 360 180">
  <defs>
    <style>
      .cls-1 {
        font-family: DAGGERSQUARE, DAGGERSQUARE;
        font-size: 36px;
      }

      .cls-1, .cls-2, .cls-3 {
        isolation: isolate;
      }

      .cls-1, .cls-3 {
        fill: #fff;
      }

      .cls-4 {
        fill: #001989;
      }

      .cls-4, .cls-5 {
        stroke-width: 0px;
      }

      .cls-5 {
        fill: #82cde2;
        fill-rule: evenodd;
      }

      .cls-3 {
        font-family: SegoeUI-Bold, 'Segoe UI';
        font-size: 20px;
        font-weight: 700;
      }
    </style>
  </defs>
  <rect class="cls-4" width="360" height="180"/>
  <g id="Layer_1-2" data-name="Layer 1-2">
    <path class="cls-5" d="M58.3,83.7l1.8,12.8c2.1.2,4,1.3,5.4,2.9l17.3-1.4c0-1,.4-2,.8-2.9l-22.1-13.3c-.9.9-2,1.5-3.2,1.9h0ZM99.8,61.7l-3.4-7.7c0,0-.2,0-.3,0-1.9.4-3.8.2-5.5-.6l-6.9,12.5c2.2.9,3.9,2.8,4.7,5.2l8.3-1.6c-.5-3,.8-6,3.1-7.9h0ZM99,52.8l3.3,7.5c4.7-1.6,9.9,1.3,11,6.2,1,4.6-1.9,9.1-6.4,10.1-3.7.8-7.5-.9-9.2-4.1l-8.9,1.7c0,3.7-2.8,7.1-6.6,7.9-4.4,1-8.8-1.7-10-6l-8.1,1c0,.9-.4,1.7-.8,2.5l22,13.3c1.1-1.1,2.5-1.9,4.1-2.2,4.6-1,9.1,1.9,10.1,6.4s-1.9,9.1-6.4,10.1-8.9-1.7-10-6.2l-15.9,1.3c1.6,4.7-1.3,9.9-6.2,11-4.6,1-9.1-1.9-10.1-6.4-.4-2,0-4,.7-5.7l-16.4-9.9c-.7.4-1.5.7-2.3.9-4.6,1-9.1-1.9-10.1-6.4-1.1-4.8,2.3-9.6,7.1-10.2l-2.2-13.7c-3.7-.2-7-2.8-7.8-6.6-1-4.6,1.9-9.1,6.4-10.1,2.4-.5,4.9,0,6.7,1.4l7.2-8.9c-.8-1-1.3-2.1-1.6-3.4-1-4.6,1.9-9.1,6.4-10.1,4.4-1,8.8,1.7,10,6l9.7-1.2c0-3.8,2.7-7.2,6.6-8.1,4.6-1,9.1,1.9,10.1,6.4.5,2.2,0,4.3-1,6.1l8.1,6.3c1-.9,2.3-1.6,3.8-2,4.6-1,9.1,1.9,10.1,6.4.9,3.3-.6,6.8-3.4,8.7h0ZM80.8,65.4c-1.6,0-3.3.3-4.7,1.2l-9.6-7.6c.9-1.3,1.5-2.8,1.6-4.4l18.9-4.4c.3.6.7,1.1,1.2,1.5l-7.4,13.7h0ZM64,74.1l7.9-.9c0-1.7.8-3.4,1.9-4.7l-9.5-7.5c-1.5,1-3.3,1.5-5.1,1.4l-1.1,5.2c3.1.8,5.4,3.4,5.9,6.5h0ZM48.1,79.3l-8.8,2.8c.5,2.6-.2,5.2-1.8,7.1l15.8,9.5c1-1,2.3-1.7,3.8-2l-1.8-12.6c-3-.1-5.8-2-7.2-4.8h0ZM38.3,79.4l9-2.8c-.2-2,.3-3.9,1.4-5.5l-15.5-11.1c-.8.6-1.6,1-2.6,1.3l2.2,14.2c2.3.5,4.3,1.9,5.5,3.9h0ZM78.6,35.4c-2.3,1.9-5.5,2.5-8.3,1.5l-5.2,10.6c1.3,1.1,2.2,2.5,2.7,4.2l18.1-4.2c-.4-2,0-4,.8-5.7l-8.1-6.4h0ZM55.2,67.2l1.2-5.5c-2.8-1.2-4.8-3.8-5.2-6.8h-14.8c-.2,1.1-.6,2.1-1.2,3l15.5,11c1.3-1,2.9-1.6,4.5-1.7h0ZM67.8,35.4c-1.2-1-2.1-2.3-2.6-3.8l-9.8,1.2c-.2,2.5-1.4,4.7-3.4,6.2l4.7,7c1.9-.7,4-.7,6,0l5.1-10.6h0ZM35.1,48.4c.8,1.1,1.3,2.4,1.4,3.7h14.9c.4-1.9,1.4-3.4,2.7-4.6l-4.8-7.2c-2.3.7-4.8.3-6.9-.9,0,0-7.3,9-7.3,9Z"/>
  </g>
  <g class="cls-2">
    <text class="cls-1" transform="translate(152.5 38.8)"><tspan x="0" y="0">EnhanceR</tspan></text>
    <text class="cls-1" transform="translate(134.2 82)"><tspan x="0" y="0">Symposium</tspan></text>
    <text class="cls-1" transform="translate(193.9 125.2)"><tspan x="0" y="0">2024</tspan></text>
  </g>
  <text class="cls-3" transform="translate(8.1 162.4)"><tspan x="0" y="0">Research IT contribution to FAIRness</tspan></text>
</svg>