<?xml version="1.0" encoding="utf-8"?>
<!-- Generator: Adobe Illustrator 27.7.0, SVG Export Plug-In . SVG Version: 6.00 Build 0)  -->
<svg version="1.1" id="Layer_2_00000168824071515573995980000011602499153377160076_"
	 xmlns="http://www.w3.org/2000/svg" xmlns:xlink="http://www.w3.org/1999/xlink" x="0px" y="0px" viewBox="0 0 360 180"
	 style="enable-background:new 0 0 360 180;" xml:space="preserve">
<style type="text/css">
	.st0{fill-rule:evenodd;clip-rule:evenodd;fill:#005289;}
	.st1{fill-rule:evenodd;clip-rule:evenodd;fill:#82CDE2;}
	.st2{fill:#FFFFFF;}
	.st3{font-family:'DAGGERSQUARE';}
	.st4{font-size:36px;}
	.st5{font-family:'SegoeUI-Bold';}
	.st6{font-size:23px;}
</style>
<rect class="st0" width="360" height="180"/>
<g id="Layer_1-2">
	<path class="st1" d="M58.3,83.7l1.8,12.8c2.1,0.2,4,1.3,5.4,2.9L82.8,98c0.1-1,0.4-2,0.8-2.9L61.5,81.8
		C60.6,82.7,59.5,83.3,58.3,83.7L58.3,83.7L58.3,83.7z M99.8,61.7L96.4,54c-0.1,0-0.2,0-0.3,0.1c-1.9,0.4-3.8,0.2-5.5-0.6L83.7,66
		c2.2,0.9,3.9,2.8,4.7,5.2l8.3-1.6C96.2,66.6,97.5,63.6,99.8,61.7C99.8,61.7,99.8,61.7,99.8,61.7z M99,52.8l3.3,7.5
		c4.7-1.6,9.9,1.3,11,6.2c1,4.6-1.9,9.1-6.4,10.1c-3.7,0.8-7.5-0.9-9.2-4.1l-8.9,1.7c-0.1,3.7-2.8,7.1-6.6,7.9c-4.4,1-8.8-1.7-10-6
		l-8.1,1c-0.1,0.9-0.4,1.7-0.8,2.5l22,13.3c1.1-1.1,2.5-1.9,4.1-2.2c4.6-1,9.1,1.9,10.1,6.4s-1.9,9.1-6.4,10.1
		c-4.5,1-8.9-1.7-10-6.2l-15.9,1.3c1.6,4.7-1.3,9.9-6.2,11c-4.6,1-9.1-1.9-10.1-6.4c-0.4-2-0.1-4,0.7-5.7l-16.4-9.9
		c-0.7,0.4-1.5,0.7-2.3,0.9c-4.6,1-9.1-1.9-10.1-6.4c-1.1-4.8,2.3-9.6,7.1-10.2l-2.2-13.7c-3.7-0.2-7-2.8-7.8-6.6
		c-1-4.6,1.9-9.1,6.4-10.1c2.4-0.5,4.9,0,6.7,1.4l7.2-8.9c-0.8-1-1.3-2.1-1.6-3.4c-1-4.6,1.9-9.1,6.4-10.1c4.4-1,8.8,1.7,10,6
		l9.7-1.2c0.1-3.8,2.7-7.2,6.6-8.1c4.6-1,9.1,1.9,10.1,6.4c0.5,2.2,0.1,4.3-1,6.1l8.1,6.3c1-0.9,2.3-1.6,3.8-2
		c4.6-1,9.1,1.9,10.1,6.4C103.3,47.4,101.8,50.9,99,52.8L99,52.8L99,52.8z M80.8,65.4c-1.6-0.1-3.3,0.3-4.7,1.2L66.5,59
		c0.9-1.3,1.5-2.8,1.6-4.4L87,50.2c0.3,0.6,0.7,1.1,1.2,1.5L80.8,65.4C80.8,65.4,80.8,65.4,80.8,65.4z M64,74.1l7.9-0.9
		c0.1-1.7,0.8-3.4,1.9-4.7L64.3,61c-1.5,1-3.3,1.5-5.1,1.4l-1.1,5.2C61.2,68.4,63.5,71,64,74.1L64,74.1z M48.1,79.3l-8.8,2.8
		c0.5,2.6-0.2,5.2-1.8,7.1l15.8,9.5c1-1,2.3-1.7,3.8-2l-1.8-12.6C52.3,84,49.5,82.1,48.1,79.3L48.1,79.3L48.1,79.3z M38.3,79.4
		l9-2.8c-0.2-2,0.3-3.9,1.4-5.5L33.2,60c-0.8,0.6-1.6,1-2.6,1.3l2.2,14.2C35.1,76,37.1,77.4,38.3,79.4
		C38.3,79.4,38.3,79.4,38.3,79.4z M78.6,35.4c-2.3,1.9-5.5,2.5-8.3,1.5l-5.2,10.6c1.3,1.1,2.2,2.5,2.7,4.2l18.1-4.2
		c-0.4-2,0-4,0.8-5.7L78.6,35.4L78.6,35.4L78.6,35.4z M55.2,67.2l1.2-5.5c-2.8-1.2-4.8-3.8-5.2-6.8L36.4,55c-0.2,1-0.6,2-1.2,2.9
		l15.5,11C52,67.9,53.6,67.3,55.2,67.2L55.2,67.2L55.2,67.2z M67.8,35.4c-1.2-1-2.1-2.3-2.6-3.8l-9.8,1.2c-0.2,2.5-1.4,4.7-3.4,6.2
		l4.7,7c1.9-0.7,4-0.7,6,0L67.8,35.4C67.8,35.4,67.8,35.4,67.8,35.4z M35.1,48.4c0.8,1.1,1.3,2.4,1.4,3.7L51.4,52
		c0.4-1.8,1.4-3.3,2.7-4.5l-4.8-7.2c-2.3,0.7-4.8,0.3-6.9-0.9C42.5,39.4,35.1,48.4,35.1,48.4z"/>
</g>
<text transform="matrix(1 0 0 1 152.4778 38.813)"><tspan x="0" y="0" class="st2 st3 st4">EnhanceR</tspan><tspan x="-18.3" y="43.2" class="st2 st3 st4">Symposium</tspan><tspan x="41.4" y="86.4" class="st2 st3 st4">2023</tspan></text>
<text transform="matrix(1 0 0 1 12.1326 162.3749)" class="st2 st5 st6">Research Software Engineering</text>
</svg>
